#define anchor_width 8
#define anchor_height 8
#define anchor_x_hot 3
#define anchor_y_hot 3
static char anchor_bits[] = {
   0x00, 0x08, 0x08, 0x08, 0x08, 0x1c, 0x3e, 0x7f};
